<svg xmlns="http://www.w3.org/2000/svg" width="23.375" height="25.413" viewBox="0 0 23.375 25.413">
  <g id="Group_20547" data-name="Group 20547" transform="translate(-1334.625 -15.836)">
    <path id="Icon_ionic-md-notifications" data-name="Icon ionic-md-notifications" d="M17.312,28.788a2.659,2.659,0,0,0,2.75-2.541h-5.5A2.66,2.66,0,0,0,17.312,28.788Zm8.938-7.624V14.176A8.412,8.412,0,0,0,19.375,6.17V5.281a1.953,1.953,0,0,0-2.063-1.906A1.953,1.953,0,0,0,15.25,5.281V6.17a8.412,8.412,0,0,0-6.875,8.005v6.989l-2.75,2.541v1.271H29V23.705Z" transform="translate(1329 12.461)" fill="#1a1a1a"/>
  </g>
</svg>
