<svg xmlns="http://www.w3.org/2000/svg" width="15.625" height="15.584" viewBox="0 0 15.625 15.584">
  <path id="Op_component_2" data-name="Op component 2" d="M2351.6,215.929h-11.718a1.921,1.921,0,0,0-1.953,1.948v11.688a1.921,1.921,0,0,0,1.953,1.948h11.717a1.921,1.921,0,0,0,1.954-1.948V217.877A1.921,1.921,0,0,0,2351.6,215.929Zm-5.847,4.731a3.034,3.034,0,1,1-3.136,3.031A3.085,3.085,0,0,1,2345.748,220.66Zm5.847,8.419c0,.341-.146.488-.488.488h-10.743c-.341,0-.488-.146-.488-.488v-6.818l1.218.264a4.518,4.518,0,0,0-.2,1.336,4.858,4.858,0,0,0,9.709,0,4.494,4.494,0,0,0-.2-1.336l1.194-.264v6.818Zm0-8.766a.488.488,0,0,1-.488.487h-1.954a.488.488,0,0,1-.489-.487v-1.948a.488.488,0,0,1,.489-.487h1.954a.488.488,0,0,1,.488.487Z" transform="translate(-2337.924 -215.929)" fill="#929294"/>
</svg>
