<svg xmlns="http://www.w3.org/2000/svg" width="20.941" height="20.941" viewBox="0 0 20.941 20.941">
  <g id="Search" transform="translate(0 0)">
    <rect id="Rectangle_176" data-name="Rectangle 176" width="20.941" height="20.941" transform="translate(0 0)" fill="none"/>
    <path id="Path_99" data-name="Path 99" d="M20.81,18.978l-4.319-4.319a8.961,8.961,0,0,0,1.832-5.5A9.105,9.105,0,0,0,9.162,0,9.105,9.105,0,0,0,0,9.162a9.105,9.105,0,0,0,9.162,9.162,8.961,8.961,0,0,0,5.5-1.832l4.319,4.319ZM2.618,9.162A6.481,6.481,0,0,1,9.162,2.618a6.481,6.481,0,0,1,6.544,6.544,6.481,6.481,0,0,1-6.544,6.544A6.481,6.481,0,0,1,2.618,9.162Z" transform="translate(0 0)" fill="#1a1a1a"/>
  </g>
</svg>
