<svg xmlns="http://www.w3.org/2000/svg" width="18.153" height="14.987" viewBox="0 0 18.153 14.987">
  <path id="Op_component_2" data-name="Op component 2" d="M2308.568,216.891a3.787,3.787,0,0,0-2.558,3.809l.038.648-.656-.079a10.68,10.68,0,0,1-6.243-3.069l-.866-.86-.222.635a3.817,3.817,0,0,0,.813,3.916c.525.555.406.635-.5.3a1.549,1.549,0,0,0-.618-.145,4.749,4.749,0,0,0,.473,1.773,4.241,4.241,0,0,0,1.8,1.694l.644.3-.761.012c-.734,0-.761.013-.682.292a3.964,3.964,0,0,0,2.453,2.17l.813.277-.708.424a7.354,7.354,0,0,1-3.516.978,3.866,3.866,0,0,0-1.076.106,10.059,10.059,0,0,0,2.531,1.164,11.091,11.091,0,0,0,8.6-.979,11.488,11.488,0,0,0,4.368-5.134,13.615,13.615,0,0,0,.893-3.967c0-.609.039-.688.773-1.415a8.781,8.781,0,0,0,.918-1.018c.132-.252.117-.252-.55-.027-1.114.4-1.271.344-.72-.251a3.849,3.849,0,0,0,.891-1.415c0-.039-.2.027-.42.145a7.156,7.156,0,0,1-1.154.45l-.708.225-.642-.438a5.336,5.336,0,0,0-1.115-.582A4.486,4.486,0,0,0,2308.568,216.891Z" transform="translate(-2297.196 -216.714)" fill="#929294"/>
</svg>
